# xmcd
#
# Track frame offsets: 
#        150
#        12235
#        23615
#        35543
#        47348
#        59250
#        79472
#        89907
#        104620
#        117615
#        132627
#        146795
#        165593
#        178107
#        190937
#        217665
#        231627
#        243740
#
# Disc length: 3457 seconds
#
# Revision: 1
# Processed by: cddbd v1.5.2PL0 Copyright (c) Steve Scherf et al.
# Submitted via: ExactAudioCopy v0.95b4
#
DISCID=0d0d7f12
DTITLE=Various Artist - Legends Of Gospel and Blues [CD2]
DYEAR=1900
DGENRE=Blues
TTITLE0=Mahalia Jackson - Nobody Knows The Trouble I've Seen
TTITLE1=Louis Armstrong - When The Saints Go Marchin' In
TTITLE2=Golden Gate Quartet - Poor Little Jesus
TTITLE3=John Lee Hooker - Litte Wheel
TTITLE4=Mahalia Jackson - I'm Going To Live The Life I Sing About In M
TTITLE4=y Song
TTITLE5=Katie Webster - Drift Away
TTITLE6=Golden Gate Quartet - Joshua Fit The Battle Of Jericho
TTITLE7=Billie Holiday And Her Orchestra - Say It Isn't So
TTITLE8=Mahalia Jackson - An Evening Prayer
TTITLE9=Sarah Vaughan - Lover Man
TTITLE10=Golden Gate Quartet - Go Down Moses
TTITLE11=Nina Simone - I Got It Bad And That Ain't Good
TTITLE12=Mahalia Jackson - Didn't It Rain
TTITLE13=B.B. King - Please Love Me
TTITLE14=Mahalia Jackson - In The Upper Room Pt. 1-2
TTITLE15=Muddy Waters - I Want You To Love Me
TTITLE16=Louis Armstrong - When It's Sleepy Time Down South
TTITLE17=Mahalia Jackson - I'm On My Way
EXTD=
EXTT0=
EXTT1=
EXTT2=
EXTT3=
EXTT4=
EXTT5=
EXTT6=
EXTT7=
EXTT8=
EXTT9=
EXTT10=
EXTT11=
EXTT12=
EXTT13=
EXTT14=
EXTT15=
EXTT16=
EXTT17=
PLAYORDER=
